<svg xmlns="http://www.w3.org/2000/svg" viewBox="0 0 271 271"><defs><style>.a{fill:#fff;}.b{fill:#188e93;}.c{fill:#ffaa0a;}</style></defs><circle class="a" cx="135.5" cy="135.5" r="135.5"/><path class="b" d="M76,110.72H65.65v-10.3H76Zm-9.37-.94H75v-8.43H66.58Z"/><path class="b" d="M85.31,110.72H75v-10.3h10.3ZM76,109.78h8.43v-8.43H76Z"/><path class="b" d="M94.68,110.72H84.38v-10.3h10.3Zm-9.37-.94h8.43v-8.43H85.31Z"/><path class="b" d="M104,110.72H93.74v-10.3H104Zm-9.36-.94h8.43v-8.43H94.68Z"/><path class="b" d="M113.41,110.72h-10.3v-10.3h10.3Zm-9.37-.94h8.43v-8.43H104Z"/><path class="b" d="M122.77,110.72h-10.3v-10.3h10.3Zm-9.36-.94h8.43v-8.43h-8.43Z"/><path class="b" d="M132.14,110.72h-10.3v-10.3h10.3Zm-9.37-.94h8.44v-8.43h-8.44Z"/><path class="b" d="M141.5,110.72H131.21v-10.3H141.5Zm-9.36-.94h8.43v-8.43h-8.43Z"/><path class="b" d="M150.87,110.72h-10.3v-10.3h10.3Zm-9.37-.94h8.44v-8.43H141.5Z"/><path class="b" d="M160.24,110.72h-10.3v-10.3h10.3Zm-9.37-.94h8.43v-8.43h-8.43Z"/><path class="b" d="M169.6,110.72H159.3v-10.3h10.3Zm-9.36-.94h8.43v-8.43h-8.43Z"/><path class="b" d="M179,110.72h-10.3v-10.3H179Zm-9.37-.94H178v-8.43H169.6Z"/><path class="b" d="M188.33,110.72H178v-10.3h10.3Zm-9.36-.94h8.43v-8.43H179Z"/><path class="b" d="M197.7,110.72H187.4v-10.3h10.3Zm-9.37-.94h8.43v-8.43h-8.43Z"/><path class="b" d="M207.06,110.72h-10.3v-10.3h10.3Zm-9.36-.94h8.43v-8.43H197.7Z"/><path class="b" d="M76,120.08H65.65v-10.3H76Zm-9.37-.93H75v-8.43H66.58Z"/><path class="b" d="M85.31,120.08H75v-10.3h10.3ZM76,119.15h8.43v-8.43H76Z"/><path class="b" d="M94.68,120.08H84.38v-10.3h10.3Zm-9.37-.93h8.43v-8.43H85.31Z"/><path class="b" d="M104,120.08H93.74v-10.3H104Zm-9.36-.93h8.43v-8.43H94.68Z"/><path class="b" d="M113.41,120.08h-10.3v-10.3h10.3Zm-9.37-.93h8.43v-8.43H104Z"/><path class="b" d="M169.6,120.08H159.3v-10.3h10.3Zm-9.36-.93h8.43v-8.43h-8.43Z"/><path class="b" d="M179,120.08h-10.3v-10.3H179Zm-9.37-.93H178v-8.43H169.6Z"/><path class="b" d="M188.33,120.08H178v-10.3h10.3Zm-9.36-.93h8.43v-8.43H179Z"/><path class="b" d="M197.7,120.08H187.4v-10.3h10.3Zm-9.37-.93h8.43v-8.43h-8.43Z"/><path class="b" d="M207.06,120.08h-10.3v-10.3h10.3Zm-9.36-.93h8.43v-8.43H197.7Z"/><path class="b" d="M76,129.45H65.65v-10.3H76Zm-9.37-.93H75v-8.44H66.58Z"/><path class="b" d="M207.06,129.45h-10.3v-10.3h10.3Zm-9.36-.93h8.43v-8.44H197.7Z"/><path class="b" d="M76,138.81H65.65V128.52H76Zm-9.37-.93H75v-8.43H66.58Z"/><path class="b" d="M33,139.51H22.71V129.22H33Zm-9.37-.93h8.43v-8.43H23.64Z"/><path class="b" d="M33.12,139.63H22.59V129.1H33.12Zm-10.3-.23H32.89V129.33H22.82Zm9.37-.7H23.52V130h8.67Z"/><path class="b" d="M245.83,139.51h-10.3V129.22h10.3Zm-9.36-.93h8.43v-8.43h-8.43Z"/><path class="b" d="M246,139.63H235.42V129.1H246Zm-10.3-.23h10.07V129.33H235.65Zm9.37-.7h-8.67V130H245Z"/><path class="b" d="M207.06,138.81h-10.3V128.52h10.3Zm-9.36-.93h8.43v-8.43H197.7Z"/><path class="b" d="M76,148.18H65.65v-10.3H76Zm-9.37-.93H75v-8.44H66.58Z"/><path class="b" d="M85.28,129.45H75v-10.3h10.3Zm-9.37-.93h8.44v-8.44H75.91Z"/><path class="b" d="M85.28,138.81H75V128.52h10.3Zm-9.37-.93h8.44v-8.43H75.91Z"/><path class="b" d="M85.28,148.18H75v-10.3h10.3Zm-9.37-.93h8.44v-8.44H75.91Z"/><path class="b" d="M94.61,129.45H84.32v-10.3H94.61Zm-9.36-.93h8.43v-8.44H85.25Z"/><path class="b" d="M94.61,138.81H84.32V128.52H94.61Zm-9.36-.93h8.43v-8.43H85.25Z"/><path class="b" d="M94.61,148.18H84.32v-10.3H94.61Zm-9.36-.93h8.43v-8.44H85.25Z"/><path class="b" d="M104,129.45H93.65v-10.3H104Zm-9.37-.93H103v-8.44H94.58Z"/><path class="b" d="M104,138.81H93.65V128.52H104Zm-9.37-.93H103v-8.43H94.58Z"/><path class="b" d="M104,148.18H93.65v-10.3H104Zm-9.37-.93H103v-8.44H94.58Z"/><path class="b" d="M113.28,129.45H103v-10.3h10.3Zm-9.36-.93h8.43v-8.44h-8.43Z"/><path class="b" d="M113.28,138.81H103V128.52h10.3Zm-9.36-.93h8.43v-8.43h-8.43Z"/><path class="b" d="M113.28,148.18H103v-10.3h10.3Zm-9.36-.93h8.43v-8.44h-8.43Z"/><path class="b" d="M169.29,129.45H159v-10.3h10.3Zm-9.37-.93h8.44v-8.44h-8.44Z"/><path class="b" d="M169.29,138.81H159V128.52h10.3Zm-9.37-.93h8.44v-8.43h-8.44Z"/><path class="b" d="M169.29,148.18H159v-10.3h10.3Zm-9.37-.93h8.44v-8.44h-8.44Z"/><path class="b" d="M178.62,129.45H168.33v-10.3h10.29Zm-9.36-.93h8.43v-8.44h-8.43Z"/><path class="b" d="M178.62,138.81H168.33V128.52h10.29Zm-9.36-.93h8.43v-8.43h-8.43Z"/><path class="b" d="M178.62,148.18H168.33v-10.3h10.29Zm-9.36-.93h8.43v-8.44h-8.43Z"/><path class="b" d="M188,129.45h-10.3v-10.3H188Zm-9.37-.93H187v-8.44h-8.44Z"/><path class="b" d="M188,138.81h-10.3V128.52H188Zm-9.37-.93H187v-8.43h-8.44Z"/><path class="b" d="M188,148.18h-10.3v-10.3H188Zm-9.37-.93H187v-8.44h-8.44Z"/><path class="b" d="M197.29,129.45H187v-10.3h10.3Zm-9.36-.93h8.43v-8.44h-8.43Z"/><path class="b" d="M197.29,138.81H187V128.52h10.3Zm-9.36-.93h8.43v-8.43h-8.43Z"/><path class="b" d="M197.29,148.18H187v-10.3h10.3Zm-9.36-.93h8.43v-8.44h-8.43Z"/><path class="b" d="M207.06,148.18h-10.3v-10.3h10.3Zm-9.36-.93h8.43v-8.44H197.7Z"/><path class="b" d="M76,157.55H65.65v-10.3H76Zm-9.37-.94H75v-8.43H66.58Z"/><path class="b" d="M85.31,157.55H75v-10.3h10.3ZM76,156.61h8.43v-8.43H76Z"/><path class="b" d="M94.68,157.55H84.38v-10.3h10.3Zm-9.37-.94h8.43v-8.43H85.31Z"/><path class="b" d="M104,157.55H93.74v-10.3H104Zm-9.36-.94h8.43v-8.43H94.68Z"/><path class="b" d="M113.41,157.55h-10.3v-10.3h10.3Zm-9.37-.94h8.43v-8.43H104Z"/><path class="b" d="M169.6,157.55H159.3v-10.3h10.3Zm-9.36-.94h8.43v-8.43h-8.43Z"/><path class="b" d="M179,157.55h-10.3v-10.3H179Zm-9.37-.94H178v-8.43H169.6Z"/><path class="b" d="M188.33,157.55H178v-10.3h10.3Zm-9.36-.94h8.43v-8.43H179Z"/><path class="b" d="M197.7,157.55H187.4v-10.3h10.3Zm-9.37-.94h8.43v-8.43h-8.43Z"/><path class="b" d="M207.06,157.55h-10.3v-10.3h10.3Zm-9.36-.94h8.43v-8.43H197.7Z"/><path class="b" d="M76,166.91H65.65v-10.3H76ZM66.58,166H75v-8.43H66.58Z"/><path class="b" d="M85.31,166.91H75v-10.3h10.3ZM76,166h8.43v-8.43H76Z"/><path class="b" d="M94.68,166.91H84.38v-10.3h10.3ZM85.31,166h8.43v-8.43H85.31Z"/><path class="b" d="M104,166.91H93.74v-10.3H104ZM94.68,166h8.43v-8.43H94.68Z"/><path class="b" d="M113.41,166.91h-10.3v-10.3h10.3ZM104,166h8.43v-8.43H104Z"/><path class="b" d="M122.77,166.91h-10.3v-10.3h10.3Zm-9.36-.93h8.43v-8.43h-8.43Z"/><path class="b" d="M132.14,166.91h-10.3v-10.3h10.3Zm-9.37-.93h8.44v-8.43h-8.44Z"/><path class="b" d="M141.5,166.91H131.21v-10.3H141.5Zm-9.36-.93h8.43v-8.43h-8.43Z"/><path class="b" d="M150.87,166.91h-10.3v-10.3h10.3ZM141.5,166h8.44v-8.43H141.5Z"/><path class="b" d="M160.24,166.91h-10.3v-10.3h10.3Zm-9.37-.93h8.43v-8.43h-8.43Z"/><path class="b" d="M169.6,166.91H159.3v-10.3h10.3Zm-9.36-.93h8.43v-8.43h-8.43Z"/><path class="b" d="M179,166.91h-10.3v-10.3H179ZM169.6,166H178v-8.43H169.6Z"/><path class="b" d="M188.33,166.91H178v-10.3h10.3ZM179,166h8.43v-8.43H179Z"/><path class="b" d="M197.7,166.91H187.4v-10.3h10.3Zm-9.37-.93h8.43v-8.43h-8.43Z"/><path class="b" d="M207.06,166.91h-10.3v-10.3h10.3ZM197.7,166h8.43v-8.43H197.7Z"/><path class="b" d="M210.68,96.8v73.73H62V96.8H210.68m1.17-1.17h-151V171.7h151V95.63Z"/><path class="b" d="M135.42,6A129.29,129.29,0,1,0,264.7,135.28,129.28,129.28,0,0,0,135.42,6Zm0,249.93A120.65,120.65,0,1,1,256.07,135.28,120.65,120.65,0,0,1,135.42,255.93Z"/><path class="c" d="M31.22,109.75l8.28-3.87-.94,4-7.23,3.21,6.14,1.44-.78,3.3L23,114.62l.78-3.31,6,1.42-4.92-6.1.93-4Z"/><path class="c" d="M30.42,97.85l2.77,1,1.62-4.46,2.41.87L35.6,99.73l2.93,1.06,1.83-5,2.56.93-3,8.22-13.21-4.8,3-8.22,2.54.92Z"/><path class="c" d="M49.1,84.15l-1.54,3L37.29,88.32,45,92.24l-1.54,3-12.52-6.4,1.55-3,10.33-1.1-7.75-4,1.55-3Z"/><path class="c" d="M45.55,64.55l4.9,9.36,3.83,2.68-2,2.8L48.5,76.72,38,75.34l2.23-3.2,6.24,1.07-3.15-5.5Z"/><path class="c" d="M61.66,63.8l-3.57,3.87,1.3,2.38L57,72.68,50.19,59.44l2.66-2.88,13.74,5.68-2.45,2.65Zm-2.49-1.11-5-2.22,2.6,4.81Z"/><path class="c" d="M71.32,55l3.54-2.82,1.62,2-6.2,4.93-8.75-11,2.66-2.12Z"/><path class="c" d="M74.18,42.15l1.6,2.47,4-2.58,1.39,2.15-4,2.58,1.7,2.62,4.49-2.91,1.48,2.29L77.5,53.52,69.86,41.73,77.2,37l1.47,2.27Z"/><path class="c" d="M95.2,39.74A6.19,6.19,0,0,1,94,43.09a8.17,8.17,0,0,1-3.12,2.52l-4.77,2.33L80,35.31,84.73,33a8.28,8.28,0,0,1,3.9-.93A6.08,6.08,0,0,1,92,33.16a8,8,0,0,1,3.21,6.58Zm-3.6,1A4.52,4.52,0,0,0,89,35.38a4.34,4.34,0,0,0-3.24.41l-1.45.71,3.52,7.21,1.45-.7A4.28,4.28,0,0,0,91.6,40.71Z"/><path class="c" d="M111.12,36.06a4,4,0,0,1-1.18,1.9,5.74,5.74,0,0,1-2.4,1.29,6.28,6.28,0,0,1-4.07,0A4.19,4.19,0,0,1,101,36.63l3.47-1a1.91,1.91,0,0,0,.9,1,1.75,1.75,0,0,0,1.32.09,1.49,1.49,0,0,0,.89-.64,1.27,1.27,0,0,0,.09-1,1.23,1.23,0,0,0-.59-.76,2.81,2.81,0,0,0-1-.32c-.38,0-.88-.09-1.53-.12a16.47,16.47,0,0,1-2.34-.23,3.93,3.93,0,0,1-1.75-.81,3.61,3.61,0,0,1-1.2-1.93,3.71,3.71,0,0,1,0-2.26,4.14,4.14,0,0,1,1.29-1.84,6.67,6.67,0,0,1,2.33-1.2,5.79,5.79,0,0,1,3.89,0,4.3,4.3,0,0,1,2.37,2.5l-3.53,1a1.81,1.81,0,0,0-.8-.91,1.46,1.46,0,0,0-1.17-.08,1.45,1.45,0,0,0-.84.57,1.18,1.18,0,0,0-.08,1,1.15,1.15,0,0,0,.55.72,2.42,2.42,0,0,0,1,.31c.36.05.87.09,1.53.13a16.77,16.77,0,0,1,2.37.24,4.26,4.26,0,0,1,1.78.83,3.69,3.69,0,0,1,1.22,2A3.82,3.82,0,0,1,111.12,36.06Z"/><path class="c" d="M122.36,23a6.5,6.5,0,0,1,2.84,3.42l-3.56.55a3.27,3.27,0,0,0-1.44-1.32,3.41,3.41,0,0,0-2-.24A3,3,0,0,0,116,26.89a4.39,4.39,0,0,0-.45,3,4.35,4.35,0,0,0,1.36,2.73,3,3,0,0,0,2.54.7,3.46,3.46,0,0,0,1.85-.85,3.38,3.38,0,0,0,1-1.69l3.55-.55a6.48,6.48,0,0,1-1.65,4.11A6.86,6.86,0,0,1,120,36.46a7.11,7.11,0,0,1-3.7-.33A6.13,6.13,0,0,1,113.52,34a7.9,7.9,0,0,1-1.42-3.54,8,8,0,0,1,.26-3.8,6.11,6.11,0,0,1,2-2.87,7,7,0,0,1,3.41-1.46A6.91,6.91,0,0,1,122.36,23Z"/><path class="c" d="M135.27,35.13l-3.15-5.24h-.77l.11,5.31-3.4.07-.3-14,5.81-.12a6.28,6.28,0,0,1,2.83.52,4,4,0,0,1,1.76,1.54,4.52,4.52,0,0,1,.63,2.28,4.12,4.12,0,0,1-.79,2.62,4.34,4.34,0,0,1-2.43,1.53L139,35.05Zm-4-7.55,2.1,0a2.16,2.16,0,0,0,1.48-.48,1.68,1.68,0,0,0,.45-1.33,1.78,1.78,0,0,0-.51-1.31,2,2,0,0,0-1.49-.44l-2.11,0Z"/><path class="c" d="M144.74,24.2l-.27,2.93,4.74.43L149,30.12l-4.73-.44L144,32.79l5.32.49L149,36l-8.71-.8,1.29-14,8.7.8-.24,2.69Z"/><path class="c" d="M156.11,25.75l-.56,2.89,4.66.91-.49,2.51-4.66-.91-.6,3.07,5.25,1-.53,2.67-8.58-1.67,2.7-13.79,8.58,1.67-.52,2.66Z"/><path class="c" d="M172.55,42.07,169.32,41l-2.73-10-2.68,8.2-3.23-1L165,24.84l3.23,1.05,2.71,10,2.7-8.27,3.23,1.05Z"/><path class="c" d="M193.46,38.3a6.48,6.48,0,0,1,.17,4.44L190.47,41a3.33,3.33,0,0,0-.34-1.93,3.43,3.43,0,0,0-1.45-1.42,3,3,0,0,0-2.64-.2,5.12,5.12,0,0,0-2.79,5.13,3,3,0,0,0,1.59,2.1,3.48,3.48,0,0,0,2,.45,3.34,3.34,0,0,0,1.79-.74l3.16,1.72A6.49,6.49,0,0,1,188,48.38a6.83,6.83,0,0,1-4.58-.88A7,7,0,0,1,180.66,45a6.12,6.12,0,0,1-.89-3.38,8.54,8.54,0,0,1,3.56-6.52A6,6,0,0,1,186.64,34a7,7,0,0,1,3.59.93A6.89,6.89,0,0,1,193.46,38.3Z"/><path class="c" d="M206.78,47a6.74,6.74,0,0,1,.49,3.58,7.77,7.77,0,0,1-4.49,5.91,6.78,6.78,0,0,1-3.6.51,7.41,7.41,0,0,1-5.72-4.34A6.79,6.79,0,0,1,193,49a7.46,7.46,0,0,1,1.49-3.53,7.28,7.28,0,0,1,3-2.38,6.81,6.81,0,0,1,3.59-.5A7.43,7.43,0,0,1,206.78,47Zm-7-1.14a4.9,4.9,0,0,0-3.56,4.7,3.76,3.76,0,0,0,4.22,3.2A4.88,4.88,0,0,0,204,49a3.77,3.77,0,0,0-4.22-3.21Z"/><path class="c" d="M223.57,62.45l-10.12,9.6-2.34-2.47,6.33-6L209,67.39l-2-2.13L211.26,57l-6.35,6-2.33-2.46L212.7,51l2.86,3-4.44,9.44,9.61-4Z"/><path class="c" d="M220.46,73.58l-4,2.83-2-2.78L226,65.55l3.16,4.51a5.35,5.35,0,0,1,1.18,3.83,4.39,4.39,0,0,1-2,3,4.66,4.66,0,0,1-2.25.87,4.12,4.12,0,0,1-2.32-.5,6.19,6.19,0,0,1-2.09-2Zm5.88.48c1-.71,1.12-1.62.33-2.73l-1-1.42-3,2.1,1,1.42C224.46,74.54,225.35,74.76,226.34,74.06Z"/><path class="c" d="M227.58,89.89l-2.45-4.66-2.68.42-1.66-3.17,14.74-1.93L237.35,84l-9.95,11-1.68-3.2Zm1.88-2,3.76-4-5.4.84Z"/><path class="c" d="M231.87,107.62l-1.14-3.2L237,96.17l-8.13,2.89-1.14-3.2,13.24-4.72,1.14,3.2-6.29,8.28L244,99.7l1.14,3.2Z"/><path class="c" d="M248.57,118.48l-10.17-2.85-4.58,1-.69-3.35,4.57-1,8.19-6.68.8,3.82-5.06,3.81,6.16,1.48Z"/><path class="c" d="M31.16,162.74,25.59,170l-1-4,4.94-6.17-6.11,1.55-.83-3.3,13.62-3.45.83,3.29-6,1.52,7.17,3.15,1,3.95Z"/><path class="c" d="M38.27,171.41l-2.76,1,1.69,4.44-2.4.91-1.68-4.44-2.92,1.1,1.89,5-2.55,1-3.09-8.18,13.14-5,3.1,8.17-2.53,1Z"/><path class="c" d="M36.46,194.25l-1.57-3,5-9-7.64,4-1.58-3,12.45-6.52,1.58,3-5.08,9.08,7.72-4,1.57,3Z"/><path class="c" d="M56.83,199l-10.47,1.45-3.81,2.7-2-2.79,3.81-2.7,4.84-9.4,2.25,3.18L48.36,197l6.24-1.11Z"/><path class="c" d="M54.74,213.66l-3.58-3.86-2.47,1.1-2.44-2.62L60,202.56l2.66,2.87-6.72,13.26L53.46,216Zm1.3-2.4,2.6-4.8-5,2.22Z"/><path class="c" d="M65.22,223.06l3.55,2.83-1.62,2L60.94,223l8.75-11,2.66,2.12Z"/><path class="c" d="M78.14,221.67l-1.61,2.46,4,2.6-1.4,2.15-4-2.6-1.71,2.61,4.48,2.92-1.49,2.29-7.32-4.78,7.68-11.77,7.32,4.78-1.47,2.26Z"/><path class="c" d="M91,237.83a6.19,6.19,0,0,1-3.38,1.1,8.2,8.2,0,0,1-3.9-.93l-4.76-2.36,6.25-12.59,4.75,2.36a8.3,8.3,0,0,1,3.12,2.52,6.09,6.09,0,0,1,1.18,3.33,7.37,7.37,0,0,1-.84,3.67A7.48,7.48,0,0,1,91,237.83Zm-3-2.26a4.53,4.53,0,0,0,2.63-5.31,4.27,4.27,0,0,0-2.3-2.31l-1.44-.72-3.57,7.19,1.44.72A4.31,4.31,0,0,0,88,235.57Z"/><path class="c" d="M106.78,244.82a4.05,4.05,0,0,1-2,.93,5.92,5.92,0,0,1-2.71-.25,6.37,6.37,0,0,1-3.39-2.25,4.21,4.21,0,0,1-.65-3.57l3.46,1.06a1.9,1.9,0,0,0,.17,1.37,1.76,1.76,0,0,0,1.06.8,1.4,1.4,0,0,0,1.09,0,1.25,1.25,0,0,0,.64-.8,1.23,1.23,0,0,0-.07-1,2.86,2.86,0,0,0-.65-.81c-.29-.25-.69-.56-1.21-.94a17.65,17.65,0,0,1-1.82-1.49,3.93,3.93,0,0,1-1-1.64,4.1,4.1,0,0,1,1.31-4.16,4,4,0,0,1,2.09-.82,6.3,6.3,0,0,1,2.6.29,5.76,5.76,0,0,1,3.24,2.16,4.23,4.23,0,0,1,.59,3.38L106,236a1.9,1.9,0,0,0-.16-1.2,1.53,1.53,0,0,0-.94-.72,1.45,1.45,0,0,0-1,0,1.15,1.15,0,0,0-.63.79,1.13,1.13,0,0,0,.07.9,2.28,2.28,0,0,0,.62.78q.4.36,1.2,1A14.9,14.9,0,0,1,107,239a4.22,4.22,0,0,1,1,1.68,3.76,3.76,0,0,1-.07,2.31A3.94,3.94,0,0,1,106.78,244.82Z"/><path class="c" d="M122.54,236.83a6.49,6.49,0,0,1,1.59,4.14l-3.54-.61a3.37,3.37,0,0,0-1-1.71,3.44,3.44,0,0,0-1.83-.89,3,3,0,0,0-2.56.67,4.45,4.45,0,0,0-1.4,2.73,4.38,4.38,0,0,0,.41,3,3,3,0,0,0,2.18,1.48,3.44,3.44,0,0,0,2-.22,3.34,3.34,0,0,0,1.46-1.28l3.54.61a6.51,6.51,0,0,1-2.89,3.37,6.8,6.8,0,0,1-4.61.64,7,7,0,0,1-3.4-1.5,6.16,6.16,0,0,1-1.92-2.91,8.61,8.61,0,0,1,1.26-7.32A6.12,6.12,0,0,1,114.7,235a7,7,0,0,1,3.7-.28A6.86,6.86,0,0,1,122.54,236.83Z"/><path class="c" d="M132.86,250.31,130,244.88l-.77,0-.21,5.31-3.4-.14.56-14,5.8.23a6.45,6.45,0,0,1,2.8.69,3.94,3.94,0,0,1,1.66,1.65,4.51,4.51,0,0,1,.49,2.31,4.08,4.08,0,0,1-1,2.57,4.32,4.32,0,0,1-2.51,1.37l3.11,5.66Zm-3.51-7.78,2.11.08a2.12,2.12,0,0,0,1.5-.38,1.73,1.73,0,0,0,.53-1.31,1.75,1.75,0,0,0-.43-1.33,2.06,2.06,0,0,0-1.46-.53l-2.11-.08Z"/><path class="c" d="M141.84,238.76l.21,2.94,4.73-.34.19,2.56-4.74.34.22,3.11,5.33-.38.19,2.72-8.72.61-1-14,8.72-.62.19,2.7Z"/><path class="c" d="M152.17,237.59l.5,2.9,4.68-.81.44,2.53-4.69.8.53,3.08,5.27-.91.47,2.69-8.62,1.48-2.39-13.85L157,234l.46,2.66Z"/><path class="c" d="M174.24,243.74l-3.26,1-7.91-6.65,2.46,8.27-3.26,1-4-13.47,3.26-1,7.93,6.73L167,231.23l3.26-1Z"/><path class="c" d="M185.52,224.55a6.39,6.39,0,0,1,3.74,2.39l-3.21,1.61a3.26,3.26,0,0,0-1.78-.81,3.37,3.37,0,0,0-2,.38,3,3,0,0,0-1.66,2.06,4.44,4.44,0,0,0,.5,3,4.37,4.37,0,0,0,2.13,2.19,3,3,0,0,0,2.63-.12,3.27,3.27,0,0,0,1.91-3.27l3.22-1.62a6.53,6.53,0,0,1-.32,4.42,6.87,6.87,0,0,1-3.33,3.27,7.1,7.1,0,0,1-3.62.81,6.07,6.07,0,0,1-3.28-1.19,8.55,8.55,0,0,1-3.34-6.64,6.06,6.06,0,0,1,1-3.34,7,7,0,0,1,2.8-2.42A6.88,6.88,0,0,1,185.52,224.55Z"/><path class="c" d="M196.78,216.47a6.67,6.67,0,0,1,3.56.63,7.33,7.33,0,0,1,2.89,2.5,7.41,7.41,0,0,1,1.37,3.58,6.85,6.85,0,0,1-.63,3.58,7.38,7.38,0,0,1-5.87,4.12,6.74,6.74,0,0,1-3.58-.63,7.8,7.8,0,0,1-4.26-6.08,6.85,6.85,0,0,1,.63-3.57,7.21,7.21,0,0,1,2.4-2.82A7.13,7.13,0,0,1,196.78,216.47Zm-3.22,6.31a4.21,4.21,0,0,0,.89,3,4.26,4.26,0,0,0,2.49,1.85,3.76,3.76,0,0,0,4.34-3.05,4.23,4.23,0,0,0-.88-3,4.28,4.28,0,0,0-2.49-1.84,3.78,3.78,0,0,0-4.35,3Z"/><path class="c" d="M211.49,202.31l9.72,10-2.43,2.37-6.08-6.26,3.91,8.36-2.11,2.05-8.27-4.14,6.09,6.26-2.43,2.37-9.73-10,3-2.89,9.5,4.32-4.12-9.56Z"/><path class="c" d="M221.63,203.78l3.9,3-2.07,2.7-11.13-8.58,3.36-4.36a5.35,5.35,0,0,1,3.31-2.27,4.4,4.4,0,0,1,3.45,1,4.57,4.57,0,0,1,1.49,1.89,4,4,0,0,1,.22,2.36,6.15,6.15,0,0,1-1.25,2.58ZM220.34,198c-1-.75-1.88-.59-2.71.49l-1.06,1.37,2.9,2.23,1.05-1.37C221.36,199.66,221.3,198.75,220.34,198Z"/><path class="c" d="M233.71,190,231,194.52l1.77,2L231,199.66l-9.42-11.51,2-3.37,14.64,2.63-1.84,3.11Zm-2.67-.56-5.34-1.11,3.56,4.15Z"/><path class="c" d="M244.06,173.6l-1.3,3.14-10.15,1.93,8,3.32-1.3,3.13-13-5.39,1.31-3.14,10.22-1.91-8-3.34,1.31-3.14Z"/><path class="c" d="M234.71,154.91l7.8,7.12,4.51,1.21-.88,3.3-4.51-1.2-10.32,2.28,1-3.77,6.22-1.13-4.83-4.09Z"/><path class="c" d="M151.81,132.07l-.67-11-4.8-8.63L135.7,117l-10.64-4.58L120.27,121l-.68,11,3.55,6.33s5.66-3.55,5.27-3.26-3.93,5.65-3.93,5.65l.87,7,2.87,4.8,4.89,2.87-1.53-3.93,4.12,2.58,4.12-2.58-1.53,3.93,4.89-2.87,2.88-4.8.86-7s-3.55-5.37-3.93-5.65,5.27,3.26,5.27,3.26Zm-26.46-7.29-.91-.91-1.54-.19,2.83-2,4.22,1.06,1.44,3.64L130,131.54l.33-5-.86-1.63-1,.33Zm18.39,21h0l-8.05-2.43-8,2.43h0a2.52,2.52,0,0,1,2.53-1.5l5.1-2.25-1.71-4.57-2-.85a1.36,1.36,0,0,1-.69-1.85c.29-.62,4.84.33,4.84.33s4.85-1.1,5-.25a1.87,1.87,0,0,1-.88,1.79l-2,.83L136.11,142l5.1,2.25A2.51,2.51,0,0,1,143.74,145.75Zm-.85-20.49-1-.33-.86,1.63.34,5L140,126.41l1.43-3.64,4.22-1.06,2.83,2-1.53.19Z"/></svg>